<?xml version="1.0"?>
<svg xmlns="http://www.w3.org/2000/svg" xmlns:xlink="http://www.w3.org/1999/xlink" xmlns:svgjs="http://svgjs.com/svgjs" version="1.1" width="312" height="312" x="0" y="0" viewBox="0 0 511.344 511.344" style="enable-background:new 0 0 512 512" xml:space="preserve" class=""><g>
<g xmlns="http://www.w3.org/2000/svg">
	<rect x="355.542" y="151.803" style="" width="47.938" height="15.979" fill="#e6e9ed" data-original="#e6e9ed"/>
	<rect x="99.872" y="151.803" style="" width="47.938" height="15.979" fill="#e6e9ed" data-original="#e6e9ed"/>
	<polygon style="" points="459.41,71.908 443.432,71.908 443.432,151.805 419.462,151.805 419.462,167.786    459.41,167.786 459.41,151.805 459.41,87.887 507.35,87.887 507.35,71.908  " fill="#e6e9ed" data-original="#e6e9ed"/>
</g>
<rect xmlns="http://www.w3.org/2000/svg" x="443.432" y="71.912" style="" width="63.918" height="15.979" fill="#656d78" data-original="#656d78" class=""/>
<g xmlns="http://www.w3.org/2000/svg">
	<rect x="99.872" y="327.582" style="" width="303.61" height="15.979" fill="#e6e9ed" data-original="#e6e9ed"/>
	<rect x="83.892" y="151.803" style="" width="15.979" height="239.69" fill="#e6e9ed" data-original="#e6e9ed"/>
	<rect x="403.482" y="151.803" style="" width="15.979" height="303.61" fill="#e6e9ed" data-original="#e6e9ed"/>
</g>
<circle xmlns="http://www.w3.org/2000/svg" style="" cx="91.882" cy="423.462" r="31.959" fill="#656d78" data-original="#656d78" class=""/>
<g xmlns="http://www.w3.org/2000/svg" style="opacity:0.2;">
	<path style="" d="M67.913,423.457c0-16.283,12.218-29.572,27.964-31.553c-1.326-0.172-2.63-0.406-3.995-0.406   c-17.649,0-31.959,14.311-31.959,31.959s14.31,31.959,31.959,31.959c1.365,0,2.669-0.234,3.995-0.406   C80.131,453.029,67.913,439.74,67.913,423.457z" fill="#ffffff" data-original="#ffffff" class=""/>
</g>
<g xmlns="http://www.w3.org/2000/svg" style="opacity:0.2;">
	<path d="M115.852,423.457c0,16.283-12.219,29.572-27.965,31.553c1.327,0.172,2.63,0.406,3.995,0.406   c17.649,0,31.959-14.311,31.959-31.959s-14.31-31.959-31.959-31.959c-1.365,0-2.668,0.234-3.995,0.406   C103.633,393.885,115.852,407.174,115.852,423.457z" fill="#ffffff" data-original="#000000" style="" class=""/>
</g>
<path xmlns="http://www.w3.org/2000/svg" style="" d="M99.872,423.457c0,4.408-3.582,7.99-7.99,7.99s-7.989-3.582-7.989-7.99s3.581-7.99,7.989-7.99  S99.872,419.049,99.872,423.457z" fill="#e6e9ed" data-original="#e6e9ed"/>
<g xmlns="http://www.w3.org/2000/svg">
	<polygon style="" points="315.595,55.928 355.544,111.857 339.565,111.857 163.79,111.857 147.811,111.857    187.759,55.928  " fill="#0064ff" data-original="#fc6e51" class=""/>
	<polygon style="" points="339.565,111.857 355.544,111.857 355.544,167.786 147.811,167.786 147.811,111.857    163.79,111.857  " fill="#0064ff" data-original="#fc6e51" class=""/>
	<path style="" d="M251.677,279.641c-83.893,0-103.866-34.755-103.866-47.938v-63.918h207.733v63.918   C355.544,244.885,335.569,279.641,251.677,279.641z" fill="#0064ff" data-original="#fc6e51" class=""/>
</g>
<g xmlns="http://www.w3.org/2000/svg" style="opacity:0.3;">
	<path style="" d="M163.79,231.704v-63.918v-55.928l39.948-55.929h-15.979l-39.948,55.929v55.928v63.918   c0,13.182,19.974,47.938,103.866,47.938c2.794,0,5.337-0.131,7.99-0.209C182.641,277.254,163.79,244.445,163.79,231.704z" fill="#ffffff" data-original="#ffffff" class=""/>
</g>
<g xmlns="http://www.w3.org/2000/svg" style="opacity:0.2;">
	<path d="M339.565,231.704v-63.918v-55.928l-39.949-55.929h15.979l39.949,55.929v55.928v63.918   c0,13.182-19.975,47.938-103.867,47.938c-2.793,0-5.337-0.131-7.989-0.209C320.713,277.254,339.565,244.445,339.565,231.704z" fill="#ffffff" data-original="#000000" style="" class=""/>
</g>
<rect xmlns="http://www.w3.org/2000/svg" x="19.974" y="199.743" style="" width="47.939" height="23.97" fill="#e6e9ed" data-original="#e6e9ed"/>
<path xmlns="http://www.w3.org/2000/svg" style="" d="M67.913,199.745H19.974v23.97h47.939V199.745z M83.893,151.805v111.857h-7.99h-7.989h-23.97h-23.97  H3.994v-71.908c0,0,0-39.949,63.919-39.949h7.989H83.893z" fill="#0064ff" data-original="#ffce54" class=""/>
<g xmlns="http://www.w3.org/2000/svg" style="opacity:0.5;">
	<path style="" d="M75.902,151.805h-7.989c-63.919,0-63.919,39.949-63.919,39.949v71.908h7.99v-71.908   C11.984,191.755,11.984,151.805,75.902,151.805z" fill="#ffffff" data-original="#ffffff" class=""/>
</g>
<g xmlns="http://www.w3.org/2000/svg" style="opacity:0.2;">
	<rect x="139.822" y="151.803" width="7.99" height="15.979" fill="#ffffff" data-original="#000000" style="" class=""/>
</g>
<g xmlns="http://www.w3.org/2000/svg" style="opacity:0.2;">
	<rect x="59.922" y="199.743" width="7.99" height="23.97" fill="#ffffff" data-original="#000000" style="" class=""/>
</g>
<rect xmlns="http://www.w3.org/2000/svg" x="19.974" y="199.743" style="" width="7.99" height="23.97" fill="#ffffff" data-original="#ffffff" class=""/>
<g xmlns="http://www.w3.org/2000/svg" style="opacity:0.2;">
	<rect x="75.902" y="151.803" width="7.99" height="111.86" fill="#ffffff" data-original="#000000" style="" class=""/>
</g>
<g xmlns="http://www.w3.org/2000/svg" style="opacity:0.2;">
	<rect x="355.542" y="151.803" width="7.989" height="15.979" fill="#ffffff" data-original="#000000" style="" class=""/>
</g>
<g xmlns="http://www.w3.org/2000/svg" style="opacity:0.2;">
	<rect x="419.462" y="151.803" width="7.989" height="15.979" fill="#ffffff" data-original="#000000" style="" class=""/>
</g>
<g xmlns="http://www.w3.org/2000/svg">
	<path style="" d="M243.688,55.928L243.688,55.928c0,4.412,3.573,7.99,7.989,7.99c4.417,0,7.99-3.578,7.99-7.99l0,0   C259.667,55.928,243.688,55.928,243.688,55.928z" fill="#aab2bd" data-original="#aab2bd"/>
	<path style="" d="M219.718,55.928v7.99c0,4.412,3.574,7.989,7.99,7.989s7.989-3.577,7.989-7.989v-7.99   C235.697,55.928,219.718,55.928,219.718,55.928z" fill="#aab2bd" data-original="#aab2bd"/>
	<path style="" d="M267.656,55.928v23.97c0,4.412,3.574,7.989,7.99,7.989s7.989-3.577,7.989-7.989v-23.97   C283.635,55.928,267.656,55.928,267.656,55.928z" fill="#aab2bd" data-original="#aab2bd"/>
</g>
<g xmlns="http://www.w3.org/2000/svg">
	<rect x="83.892" y="151.803" style="" width="7.989" height="239.69" fill="#ffffff" data-original="#ffffff" class=""/>
	<rect x="403.482" y="151.803" style="" width="7.99" height="303.61" fill="#ffffff" data-original="#ffffff" class=""/>
</g>
<g xmlns="http://www.w3.org/2000/svg">
	<path style="" d="M83.893,388.541c-2.209,0-3.995-1.787-3.995-3.994V151.805c0-2.208,1.786-3.995,3.995-3.995   c2.208,0,3.994,1.787,3.994,3.995v232.742C87.887,386.754,86.101,388.541,83.893,388.541z" fill="#ffffff" data-original="#3a3847" class=""/>
	<path style="" d="M99.872,388.541c-2.209,0-3.995-1.787-3.995-3.994v-40.988c0-2.207,1.786-3.994,3.995-3.994   c2.208,0,3.994,1.787,3.994,3.994v40.988C103.866,386.754,102.08,388.541,99.872,388.541z" fill="#ffffff" data-original="#3a3847" class=""/>
	<path style="" d="M419.462,459.41c-2.208,0-3.995-1.785-3.995-3.994V151.805c0-2.208,1.787-3.995,3.995-3.995   s3.995,1.787,3.995,3.995v303.611C423.457,457.625,421.67,459.41,419.462,459.41z" fill="#ffffff" data-original="#3a3847" class=""/>
	<path style="" d="M403.483,459.41c-2.208,0-3.995-1.785-3.995-3.994V343.559c0-2.207,1.787-3.994,3.995-3.994   s3.995,1.787,3.995,3.994v111.857C407.478,457.625,405.691,459.41,403.483,459.41z" fill="#ffffff" data-original="#3a3847" class=""/>
	<path style="" d="M91.882,459.41c-19.826,0-35.954-16.127-35.954-35.953s16.128-35.953,35.954-35.953   s35.954,16.127,35.954,35.953S111.708,459.41,91.882,459.41z M91.882,395.492c-15.418,0-27.964,12.547-27.964,27.965   s12.546,27.965,27.964,27.965s27.964-12.547,27.964-27.965S107.3,395.492,91.882,395.492z" fill="#ffffff" data-original="#3a3847" class=""/>
	<path style="" d="M91.882,435.442c-6.608,0-11.984-5.375-11.984-11.984s5.376-11.984,11.984-11.984   s11.984,5.375,11.984,11.984S98.49,435.442,91.882,435.442z M91.882,419.463c-2.2,0-3.995,1.795-3.995,3.994   c0,2.201,1.795,3.994,3.995,3.994s3.995-1.793,3.995-3.994C95.877,421.258,94.082,419.463,91.882,419.463z" fill="#ffffff" data-original="#3a3847" class=""/>
	<path style="" d="M435.442,459.41h-47.938c-2.208,0-3.995-1.785-3.995-3.994c0-2.207,1.787-3.994,3.995-3.994h47.938   c2.208,0,3.995,1.787,3.995,3.994C439.437,457.625,437.65,459.41,435.442,459.41z" fill="#ffffff" data-original="#3a3847" class=""/>
	<path style="" d="M403.483,347.555H99.872c-2.209,0-3.995-1.787-3.995-3.996c0-2.207,1.786-3.994,3.995-3.994h303.61   c2.208,0,3.995,1.787,3.995,3.994C407.478,345.768,405.691,347.555,403.483,347.555z" fill="#ffffff" data-original="#3a3847" class=""/>
	<path style="" d="M403.483,331.574H99.872c-2.209,0-3.995-1.785-3.995-3.994s1.786-3.994,3.995-3.994h303.61   c2.208,0,3.995,1.785,3.995,3.994S405.691,331.574,403.483,331.574z" fill="#ffffff" data-original="#3a3847" class=""/>
	<path style="" d="M99.872,331.574c-2.209,0-3.995-1.785-3.995-3.994V151.805c0-2.208,1.786-3.995,3.995-3.995   c2.208,0,3.994,1.787,3.994,3.995V327.58C103.866,329.789,102.08,331.574,99.872,331.574z" fill="#ffffff" data-original="#3a3847" class=""/>
	<path style="" d="M403.483,331.574c-2.208,0-3.995-1.785-3.995-3.994V151.805c0-2.208,1.787-3.995,3.995-3.995   s3.995,1.787,3.995,3.995V327.58C407.478,329.789,405.691,331.574,403.483,331.574z" fill="#ffffff" data-original="#3a3847" class=""/>
	<path style="" d="M251.677,283.637c-88.488,0-107.861-37.487-107.861-51.934V111.857c0-0.835,0.258-1.646,0.749-2.325   l39.94-55.925c1.28-1.806,3.777-2.204,5.579-0.928c1.795,1.28,2.208,3.776,0.929,5.571l-39.208,54.891v118.563   c0,4.869,3.94,15.734,18.695,25.592c12.538,8.373,36.805,18.352,81.177,18.352c44.373,0,68.639-9.979,81.178-18.352   c14.754-9.858,18.694-20.723,18.694-25.592V113.14l-39.207-54.89c-1.28-1.794-0.866-4.291,0.928-5.571   c1.803-1.276,4.292-0.878,5.579,0.928l39.941,55.925c0.491,0.679,0.749,1.49,0.749,2.325v119.846   C359.539,246.15,340.165,283.637,251.677,283.637z" fill="#ffffff" data-original="#3a3847" class=""/>
	<path style="" d="M323.585,59.923H179.77c-2.208,0-3.995-1.787-3.995-3.995s1.787-3.995,3.995-3.995h143.815   c2.208,0,3.995,1.787,3.995,3.995S325.793,59.923,323.585,59.923z" fill="#ffffff" data-original="#3a3847" class=""/>
	<path style="" d="M395.492,171.781H107.861c-2.208,0-3.995-1.787-3.995-3.995s1.787-3.995,3.995-3.995h287.631   c2.209,0,3.995,1.787,3.995,3.995S397.701,171.781,395.492,171.781z" fill="#ffffff" data-original="#3a3847" class=""/>
	<path style="" d="M363.533,299.615H139.82c-19.975,0-19.975-21.051-19.975-27.963c0-2.209,1.787-3.996,3.995-3.996   s3.995,1.787,3.995,3.996c0,16.58,4.791,19.975,11.984,19.975h223.713c7.194,0,11.985-3.395,11.985-19.975   c0-2.209,1.786-3.996,3.995-3.996c2.207,0,3.994,1.787,3.994,3.996C383.508,278.565,383.508,299.615,363.533,299.615z" fill="#ffffff" data-original="#3a3847" class=""/>
	<path style="" d="M379.514,275.647c-2.209,0-3.995-1.787-3.995-3.994v-87.888c0-2.208,1.786-3.995,3.995-3.995   c2.207,0,3.994,1.787,3.994,3.995v87.888C383.508,273.86,381.721,275.647,379.514,275.647z" fill="#ffffff" data-original="#3a3847" class=""/>
	<path style="" d="M123.841,275.647c-2.208,0-3.995-1.787-3.995-3.994v-87.888c0-2.208,1.787-3.995,3.995-3.995   s3.995,1.787,3.995,3.995v87.888C127.836,273.86,126.049,275.647,123.841,275.647z" fill="#ffffff" data-original="#3a3847" class=""/>
	<path style="" d="M251.677,299.615c-2.208,0-3.994-1.785-3.994-3.994v-15.98c0-2.207,1.786-3.994,3.994-3.994   s3.995,1.787,3.995,3.994v15.98C255.672,297.83,253.885,299.615,251.677,299.615z" fill="#ffffff" data-original="#3a3847" class=""/>
	<path style="" d="M139.82,155.801h-31.959c-2.208,0-3.995-1.787-3.995-3.995s1.787-3.995,3.995-3.995h31.959   c2.208,0,3.995,1.787,3.995,3.995C143.816,154.014,142.028,155.801,139.82,155.801z" fill="#ffffff" data-original="#3a3847" class=""/>
	<path style="" d="M371.524,331.574c-0.882,0-1.756-0.287-2.497-0.873c-1.724-1.381-1.997-3.895-0.624-5.617   l31.959-39.949c1.389-1.717,3.894-1.982,5.618-0.625c1.724,1.381,1.997,3.895,0.624,5.619l-31.959,39.947   C373.857,331.061,372.693,331.574,371.524,331.574z" fill="#ffffff" data-original="#3a3847" class=""/>
	<path style="" d="M139.82,331.574c-1.022,0-2.044-0.389-2.824-1.17l-39.949-39.949c-1.561-1.561-1.561-4.088,0-5.648   s4.089-1.561,5.649,0l39.948,39.949c1.561,1.561,1.561,4.088,0,5.648C141.864,331.186,140.843,331.574,139.82,331.574z" fill="#ffffff" data-original="#3a3847" class=""/>
	<path style="" d="M339.565,115.852H163.79c-2.208,0-3.995-1.787-3.995-3.995s1.787-3.995,3.995-3.995h175.774   c2.208,0,3.994,1.787,3.994,3.995C343.559,114.065,341.773,115.852,339.565,115.852z" fill="#ffffff" data-original="#3a3847" class=""/>
	<path style="" d="M395.492,155.801h-31.959c-2.208,0-3.994-1.787-3.994-3.995s1.786-3.995,3.994-3.995h31.959   c2.209,0,3.995,1.787,3.995,3.995C399.487,154.014,397.701,155.801,395.492,155.801z" fill="#ffffff" data-original="#3a3847" class=""/>
	<path style="" d="M443.432,155.801c-2.209,0-3.995-1.787-3.995-3.995V71.908c0-2.208,1.786-3.995,3.995-3.995   c2.208,0,3.994,1.787,3.994,3.995v79.897C447.426,154.014,445.64,155.801,443.432,155.801z" fill="#ffffff" data-original="#3a3847" class=""/>
	<path style="" d="M507.35,75.903h-63.918c-2.209,0-3.995-1.787-3.995-3.995s1.786-3.995,3.995-3.995h63.918   c2.208,0,3.994,1.787,3.994,3.995S509.558,75.903,507.35,75.903z" fill="#ffffff" data-original="#3a3847" class=""/>
	<path style="" d="M75.902,267.656H3.994c-2.208,0-3.994-1.787-3.994-3.994c0-2.209,1.786-3.994,3.994-3.994h71.908   c2.208,0,3.995,1.785,3.995,3.994C79.898,265.869,78.11,267.656,75.902,267.656z" fill="#ffffff" data-original="#3a3847" class=""/>
	<path style="" d="M3.994,267.656c-2.208,0-3.994-1.787-3.994-3.994v-71.908c0-2.208,1.786-3.995,3.994-3.995   c2.209,0,3.995,1.787,3.995,3.995v71.908C7.989,265.869,6.203,267.656,3.994,267.656z" fill="#ffffff" data-original="#3a3847" class=""/>
	<path style="" d="M3.994,195.738c-0.008,0-0.016,0-0.023,0C1.771,195.727,0,193.951,0,191.755   c0-0.441,0.78-43.944,67.913-43.944c2.208,0,3.994,1.787,3.994,3.995s-1.786,3.995-3.994,3.995   c-58.839,0-59.908,34.507-59.924,35.978C7.966,193.967,6.18,195.738,3.994,195.738z" fill="#ffffff" data-original="#3a3847" class=""/>
	<path style="" d="M19.974,267.656c-2.208,0-3.994-1.787-3.994-3.994v-7.99c0-2.208,1.786-3.995,3.994-3.995   c2.209,0,3.995,1.787,3.995,3.995v7.99C23.969,265.869,22.183,267.656,19.974,267.656z" fill="#ffffff" data-original="#3a3847" class=""/>
	<path style="" d="M43.943,267.656c-2.208,0-3.995-1.787-3.995-3.994v-7.99c0-2.208,1.787-3.995,3.995-3.995   s3.995,1.787,3.995,3.995v7.99C47.939,265.869,46.151,267.656,43.943,267.656z" fill="#ffffff" data-original="#3a3847" class=""/>
	<path style="" d="M67.913,267.656c-2.209,0-3.995-1.787-3.995-3.994v-7.99c0-2.208,1.786-3.995,3.995-3.995   c2.208,0,3.994,1.787,3.994,3.995v7.99C71.907,265.869,70.121,267.656,67.913,267.656z" fill="#ffffff" data-original="#3a3847" class=""/>
	<path style="" d="M19.974,227.71c-2.208,0-3.994-1.787-3.994-3.995v-23.97c0-2.208,1.786-3.995,3.994-3.995   c2.209,0,3.995,1.787,3.995,3.995v23.97C23.969,225.923,22.183,227.71,19.974,227.71z" fill="#ffffff" data-original="#3a3847" class=""/>
	<path style="" d="M67.913,227.71H19.974c-2.208,0-3.994-1.787-3.994-3.995s1.786-3.995,3.994-3.995h47.939   c2.208,0,3.994,1.787,3.994,3.995S70.121,227.71,67.913,227.71z" fill="#ffffff" data-original="#3a3847" class=""/>
	<path style="" d="M67.913,203.74H19.974c-2.208,0-3.994-1.787-3.994-3.995s1.786-3.995,3.994-3.995h47.939   c2.208,0,3.994,1.787,3.994,3.995S70.121,203.74,67.913,203.74z" fill="#ffffff" data-original="#3a3847" class=""/>
	<path style="" d="M67.913,227.71c-2.209,0-3.995-1.787-3.995-3.995v-23.97c0-2.208,1.786-3.995,3.995-3.995   c2.208,0,3.994,1.787,3.994,3.995v23.97C71.907,225.923,70.121,227.71,67.913,227.71z" fill="#ffffff" data-original="#3a3847" class=""/>
	<path style="" d="M459.41,171.781h-31.959c-2.207,0-3.994-1.787-3.994-3.995s1.787-3.995,3.994-3.995h31.959   c2.209,0,3.995,1.787,3.995,3.995C463.405,169.993,461.619,171.781,459.41,171.781z" fill="#ffffff" data-original="#3a3847" class=""/>
	<path style="" d="M459.41,171.781c-2.207,0-3.994-1.787-3.994-3.995V87.887c0-2.208,1.787-3.995,3.994-3.995   c2.209,0,3.995,1.787,3.995,3.995v79.897C463.405,169.993,461.619,171.781,459.41,171.781z" fill="#ffffff" data-original="#3a3847" class=""/>
	<path style="" d="M507.35,91.882h-47.939c-2.207,0-3.994-1.787-3.994-3.995s1.787-3.995,3.994-3.995h47.939   c2.208,0,3.994,1.787,3.994,3.995S509.558,91.882,507.35,91.882z" fill="#ffffff" data-original="#3a3847" class=""/>
	<path style="" d="M507.35,91.882c-2.209,0-3.995-1.787-3.995-3.995V71.908c0-2.208,1.786-3.995,3.995-3.995   c2.208,0,3.994,1.787,3.994,3.995v15.979C511.344,90.095,509.558,91.882,507.35,91.882z" fill="#ffffff" data-original="#3a3847" class=""/>
	<path style="" d="M459.41,79.898c-2.207,0-3.994-1.787-3.994-3.995v-3.995c0-2.208,1.787-3.995,3.994-3.995   c2.209,0,3.995,1.787,3.995,3.995v3.995C463.405,78.111,461.619,79.898,459.41,79.898z" fill="#ffffff" data-original="#3a3847" class=""/>
	<path style="" d="M475.391,79.898c-2.209,0-3.995-1.787-3.995-3.995v-3.995c0-2.208,1.786-3.995,3.995-3.995   c2.208,0,3.994,1.787,3.994,3.995v3.995C479.385,78.111,477.599,79.898,475.391,79.898z" fill="#ffffff" data-original="#3a3847" class=""/>
	<path style="" d="M491.369,79.898c-2.207,0-3.994-1.787-3.994-3.995v-3.995c0-2.208,1.787-3.995,3.994-3.995   c2.209,0,3.996,1.787,3.996,3.995v3.995C495.365,78.111,493.578,79.898,491.369,79.898z" fill="#ffffff" data-original="#3a3847" class=""/>
	<path style="" d="M419.462,155.801h-15.979c-2.208,0-3.995-1.787-3.995-3.995s1.787-3.995,3.995-3.995h15.979   c2.208,0,3.995,1.787,3.995,3.995C423.457,154.014,421.67,155.801,419.462,155.801z" fill="#ffffff" data-original="#3a3847" class=""/>
	<path style="" d="M99.872,155.801H83.893c-2.209,0-3.995-1.787-3.995-3.995s1.786-3.995,3.995-3.995h15.979   c2.208,0,3.994,1.787,3.994,3.995C103.866,154.014,102.08,155.801,99.872,155.801z" fill="#ffffff" data-original="#3a3847" class=""/>
	<path style="" d="M443.432,155.801h-15.98c-2.207,0-3.994-1.787-3.994-3.995s1.787-3.995,3.994-3.995h15.98   c2.208,0,3.994,1.787,3.994,3.995C447.426,154.014,445.64,155.801,443.432,155.801z" fill="#ffffff" data-original="#3a3847" class=""/>
	<path style="" d="M75.902,155.801h-7.989c-2.209,0-3.995-1.787-3.995-3.995s1.786-3.995,3.995-3.995h7.989   c2.208,0,3.995,1.787,3.995,3.995C79.898,154.014,78.11,155.801,75.902,155.801z" fill="#ffffff" data-original="#3a3847" class=""/>
</g>
<g xmlns="http://www.w3.org/2000/svg">
</g>
<g xmlns="http://www.w3.org/2000/svg">
</g>
<g xmlns="http://www.w3.org/2000/svg">
</g>
<g xmlns="http://www.w3.org/2000/svg">
</g>
<g xmlns="http://www.w3.org/2000/svg">
</g>
<g xmlns="http://www.w3.org/2000/svg">
</g>
<g xmlns="http://www.w3.org/2000/svg">
</g>
<g xmlns="http://www.w3.org/2000/svg">
</g>
<g xmlns="http://www.w3.org/2000/svg">
</g>
<g xmlns="http://www.w3.org/2000/svg">
</g>
<g xmlns="http://www.w3.org/2000/svg">
</g>
<g xmlns="http://www.w3.org/2000/svg">
</g>
<g xmlns="http://www.w3.org/2000/svg">
</g>
<g xmlns="http://www.w3.org/2000/svg">
</g>
<g xmlns="http://www.w3.org/2000/svg">
</g>
</g></svg>
